<svg width="157" height="157" viewBox="0 0 157 157" fill="none" xmlns="http://www.w3.org/2000/svg">
<rect width="156.491" height="156.491" rx="78.2455" fill="#00364E"/>
<g clip-path="url(#clip0_402_7670)">
<path d="M76.2278 50.4989C58.3276 50.4989 43.8169 63.0058 43.8169 78.4332C43.8169 86.3823 47.6691 93.5556 53.8526 98.6423C53.7735 101.068 52.9285 103.468 51.4508 105.394C54.3156 105.279 57.122 104.136 59.2799 102.248C64.2112 104.861 70.0157 106.368 76.2283 106.368C94.1285 106.368 108.64 93.8607 108.64 78.4332C108.64 63.0058 94.128 50.4989 76.2278 50.4989ZM96.3722 91.9693C95.1777 93.2877 93.4757 94.0288 91.6985 94.0288H60.7572C58.98 94.0288 57.2779 93.2877 56.0835 91.9693C52.7012 88.2356 50.6856 83.5371 50.6856 78.4328C50.6856 73.3285 52.7008 68.6304 56.083 64.8968C57.2775 63.5779 58.9795 62.8368 60.7572 62.8368H91.6981C93.4975 62.8368 95.2089 63.6049 96.4141 64.9426C99.7715 68.6685 101.77 73.3495 101.77 78.4324C101.77 83.5152 99.7544 88.2352 96.3722 91.9688V91.9693Z" fill="white"/>
<path d="M42.2734 78.4333C42.2734 82.2649 43.1026 85.9806 44.7406 89.4912C40.3646 88.0496 37.1802 85.1966 37.1802 78.4333C37.1802 72.0175 40.3646 68.8166 44.741 67.3754C43.1035 70.8878 42.2734 74.6051 42.2734 78.4333Z" fill="white"/>
<path d="M40.9607 59.0826V67.457C39.8251 68.1914 38.8643 69.0767 38.0876 70.1076C38.0808 70.117 38.0735 70.1256 38.0671 70.135V59.0826C38.0671 58.2824 38.7148 57.6337 39.5137 57.6337C40.3126 57.6337 40.9607 58.2824 40.9607 59.0826Z" fill="white"/>
<path d="M110.183 78.4333C110.183 82.2649 109.354 85.9806 107.716 89.4912C112.092 88.05 115.276 85.197 115.276 78.4333C115.276 72.0175 112.092 68.8166 107.715 67.3754C109.353 70.8878 110.183 74.6051 110.183 78.4333Z" fill="white"/>
<path d="M111.495 59.0826V67.457C112.631 68.1914 113.592 69.0767 114.368 70.1076C114.375 70.117 114.382 70.1256 114.389 70.135V59.0826C114.389 58.2824 113.741 57.6337 112.942 57.6337C112.143 57.6337 111.495 58.2824 111.495 59.0826Z" fill="white"/>
<path d="M69.3402 77.5667C68.3987 79.0186 67.0401 77.5667 64.2017 77.5667C61.3633 77.5667 60.0052 79.0186 59.0636 77.5667C58.1524 76.1609 60.6665 72.6935 64.2017 72.6935C67.7369 72.6935 70.2511 76.1614 69.3402 77.5667Z" fill="white"/>
<path d="M93.392 77.5667C92.4504 79.0186 91.0919 77.5667 88.2535 77.5667C85.4151 77.5667 84.057 79.0186 83.1154 77.5667C82.2042 76.1609 84.7183 72.6935 88.2535 72.6935C91.7887 72.6935 94.3028 76.1614 93.392 77.5667Z" fill="white"/>
<path d="M76.2279 84.1726C74.2469 84.1726 72.9401 82.5991 72.8854 82.5324C72.5894 82.1695 72.6428 81.6346 73.005 81.338C73.3673 81.0415 73.9013 81.095 74.1974 81.4578C74.2029 81.4643 75.0616 82.475 76.2279 82.475C77.3942 82.475 78.2529 81.4643 78.2615 81.454C78.5575 81.0911 79.0898 81.0393 79.4521 81.3359C79.8144 81.6324 79.8665 82.169 79.57 82.5319C79.5153 82.5991 78.2085 84.1721 76.2275 84.1721L76.2279 84.1726Z" fill="white"/>
</g>
<defs>
<clipPath id="clip0_402_7670">
<rect width="78.0954" height="55.8682" fill="white" transform="translate(37.1804 50.4989)"/>
</clipPath>
</defs>
</svg>
