<svg width="221" height="30" viewBox="0 0 221 30" fill="none" xmlns="http://www.w3.org/2000/svg">
<path d="M0.0108729 9.92726C0.0108729 11.4972 0.918742 13.5079 2.19628 15.5509L2.29414 15.5886C2.90844 16.4756 3.71846 17.4756 4.19142 17.4756C4.398 17.4756 7.57825 12.8735 7.57825 12.8735L9.92132 15.6584L14.216 9.34662L15.1076 10.6853L15.2326 5.63694L10.8999 8.95952L12.9928 8.80898L9.89957 13.5617L7.08898 10.266C7.08898 10.266 5.02861 13.2606 4.02289 14.5832C2.92475 12.8843 2.12561 11.1961 2.12561 9.895C2.12561 5.79823 5.63748 2.47027 9.95937 2.47027C14.2813 2.47027 17.804 5.79285 17.804 9.895C17.804 13.9972 10.1007 21.938 10.1007 21.938C10.1007 21.938 8.16538 20.0778 6.06152 17.3896C5.86581 17.7337 5.02861 18.5187 4.82203 18.8197C7.50758 22.2767 10.1333 25.309 10.1333 25.309C10.1333 25.309 19.9187 15.1692 19.9187 9.93264C19.9187 4.69608 15.4609 0.454145 9.95393 0.454145C4.44692 0.454145 0 4.69608 0 9.93264" fill="#EA580C"/>
<path d="M13.107 23.4488C15.4066 24.0509 16.4504 25.1692 15.7382 26.2714C15.026 27.3735 12.7808 28.1154 10.0681 28.1316C7.36623 28.1477 5.06666 27.4434 4.26752 26.352C3.46294 25.2606 4.42517 24.1316 6.68125 23.4972L4.83833 22.3144C1.31559 23.3036 -0.17397 25.0671 1.07639 26.766C2.32675 28.4649 5.90929 29.5671 10.1225 29.5455C14.3411 29.5187 17.8529 28.3628 18.9674 26.6477C20.0818 24.9273 18.4509 23.1853 14.8575 22.2498L13.1124 23.4541L13.107 23.4488Z" fill="#EA580C"/>
<path d="M42.985 20.5348V10.4434L37.951 18.7606H36.6571L31.6285 10.5832V20.5348H28.894V5.32512H31.2697L37.3041 15.4165L43.2732 5.32512H45.6434V20.5348H42.985Z" fill="#1D1D1B"/>
<path d="M58.0055 10.0133C58.9405 10.8681 59.37 12.0724 59.37 13.7122V20.5348H56.7823V19.1154C56.4235 19.6154 55.994 20.0402 55.3471 20.2552C54.7002 20.5402 53.9826 20.68 53.1182 20.68C52.2538 20.68 51.4656 20.5402 50.8186 20.2552C50.1717 19.9703 49.6661 19.5455 49.3073 19.0455C48.9485 18.5455 48.8018 17.9058 48.8018 17.266C48.8018 16.2015 49.1606 15.4165 49.9543 14.7767C50.7425 14.1369 51.9657 13.852 53.6184 13.852H56.6355V13.7122C56.6355 12.9326 56.4181 12.2929 55.9179 11.8628C55.4123 11.438 54.6947 11.223 53.7597 11.223C53.1128 11.223 52.4659 11.2929 51.8189 11.5079C51.172 11.723 50.6664 12.0079 50.237 12.3628L49.1606 10.3735C49.8075 9.87888 50.5251 9.59394 51.3895 9.30899C52.2538 9.09394 53.1889 8.95415 54.1239 8.95415C55.7766 8.81437 57.0704 9.1692 58.0055 10.0187M55.4885 18.1907C55.994 17.9058 56.4235 17.4111 56.641 16.8412V15.4918H53.8358C52.2538 15.4918 51.4656 15.9864 51.4656 17.0563C51.4656 17.5563 51.683 17.9111 52.0418 18.1961C52.4006 18.481 52.9769 18.6208 53.6945 18.6208C54.3414 18.6907 54.9883 18.5509 55.4939 18.1961" fill="#1D1D1B"/>
<path d="M72.4556 9.51866C73.3906 10.0187 74.0376 10.7283 74.5377 11.5832C75.0433 12.5079 75.3314 13.5025 75.3314 14.7122C75.3314 15.8466 75.0433 16.9165 74.5377 17.8412C74.0321 18.766 73.3145 19.4757 72.4556 19.9004C71.5205 20.4004 70.5148 20.6101 69.3623 20.6101C67.7803 20.6101 66.5572 20.1154 65.6221 19.0455V24.6638H62.8931V8.95415H65.4808V10.4488C65.9102 9.87888 66.4865 9.45415 67.1334 9.23909C67.7803 8.95415 68.4979 8.81436 69.3623 8.81436C70.5148 8.81436 71.5205 9.02942 72.4556 9.52404M71.5912 17.3359C72.2381 16.6961 72.5969 15.7714 72.5969 14.7068C72.5969 13.6423 72.2381 12.7176 71.5912 12.0778C70.9443 11.438 70.0799 11.0832 69.0742 11.0832C68.4273 11.0832 67.851 11.223 67.2802 11.5079C66.7039 11.7929 66.3451 12.2176 66.057 12.7875C65.7689 13.3574 65.6275 13.9972 65.6275 14.7068C65.6275 15.4165 65.7689 16.0563 66.057 16.6262C66.3451 17.1961 66.7746 17.6208 67.2802 17.9058C67.7858 18.1907 68.4327 18.3305 69.0742 18.3305C70.0799 18.3305 70.9443 17.9757 71.5912 17.3359Z" fill="#1D1D1B"/>
<path d="M86.2584 10.0133C87.1935 10.8681 87.6229 12.0724 87.6229 13.7122V20.5348H85.0352V19.1154C84.6764 19.6154 84.247 20.0402 83.6 20.2552C82.9531 20.5402 82.2355 20.68 81.3711 20.68C80.5068 20.68 79.7185 20.5402 79.0716 20.2552C78.4246 19.9703 77.9191 19.5455 77.5603 19.0455C77.2015 18.5455 77.0547 17.9058 77.0547 17.266C77.0547 16.2015 77.4135 15.4165 78.2072 14.7767C78.9955 14.1369 80.2186 13.852 81.8713 13.852H84.8885V13.7122C84.8885 12.9326 84.671 12.2929 84.1709 11.8628C83.6653 11.438 82.9477 11.223 82.0126 11.223C81.3657 11.223 80.7188 11.2929 80.0719 11.5079C79.4249 11.723 78.9194 12.0079 78.4899 12.3628L77.4135 10.3735C78.0604 9.87888 78.778 9.59394 79.6424 9.30899C80.5068 9.09394 81.4418 8.95415 82.3769 8.95415C83.9588 8.81437 85.3234 9.1692 86.2584 10.0187M83.7414 18.1907C84.247 17.9058 84.6764 17.4111 84.8939 16.8412V15.4918H82.0887C80.5068 15.4918 79.7185 15.9864 79.7185 17.0563C79.7185 17.5563 79.936 17.9111 80.2947 18.1961C80.6535 18.481 81.2298 18.6208 81.9474 18.6208C82.5943 18.6907 83.1706 18.5509 83.7468 18.1961" fill="#1D1D1B"/>
<path d="M94.6683 5.32512H91.1455V20.5402H94.6683V5.32512Z" fill="#1D1D1B"/>
<path d="M108.825 9.9434C109.76 10.7982 110.189 12.0778 110.189 13.7821V20.4649H106.737V14.2821C106.737 13.3574 106.52 12.6477 106.09 12.2176C105.661 11.7929 105.084 11.5079 104.291 11.5079C103.426 11.5079 102.709 11.7929 102.203 12.2875C101.703 12.7875 101.415 13.5671 101.415 14.6316V20.3896H97.9629V8.80362H101.198V10.1531C101.627 9.65308 102.203 9.29824 102.921 9.01329C103.568 8.72835 104.356 8.58856 105.15 8.58856C106.732 8.65845 107.879 9.08319 108.814 9.93802" fill="#1D1D1B"/>
<path d="M124.786 8.80361L119.822 20.4649H116.3L111.342 8.80361H114.865L118.099 16.766L121.475 8.80361H124.786Z" fill="#1D1D1B"/>
<path d="M137.366 15.6316H128.45C128.597 16.3413 129.026 16.9111 129.602 17.3359C130.179 17.7606 130.967 17.9757 131.831 17.9757C132.478 17.9757 132.984 17.9058 133.484 17.6907C133.99 17.4757 134.419 17.1907 134.778 16.8359L136.577 18.7552C135.501 20.0348 133.843 20.6746 131.69 20.6746C130.325 20.6746 129.173 20.3896 128.167 19.895C127.162 19.395 126.373 18.6853 125.797 17.7606C125.221 16.8359 124.933 15.8413 124.933 14.6316C124.933 13.4918 125.221 12.4273 125.726 11.5025C126.303 10.5778 127.02 9.86813 127.955 9.36813C128.89 8.86813 129.967 8.58856 131.19 8.58856C132.342 8.58856 133.419 8.80362 134.354 9.29824C135.289 9.79824 136.006 10.5079 136.583 11.4326C137.083 12.3574 137.371 13.4219 137.371 14.6316V15.6262M129.314 11.8628C128.809 12.2875 128.45 12.8574 128.379 13.6423H134.202C134.06 12.9326 133.772 12.2929 133.267 11.8628C132.766 11.438 132.119 11.223 131.326 11.223C130.461 11.223 129.814 11.438 129.314 11.8628Z" fill="#1D1D1B"/>
<path d="M144.623 9.08856C145.341 8.80361 146.134 8.66383 146.993 8.66383V11.7929C146.634 11.7929 146.346 11.723 146.205 11.723C145.199 11.723 144.482 12.0079 143.905 12.5025C143.329 13.0724 143.041 13.852 143.041 14.9219V20.4649H139.589V8.80899H142.823V10.3735C143.329 9.80361 143.9 9.37888 144.623 9.09393" fill="#1D1D1B"/>
<path d="M150.157 20.3197C149.222 20.1047 148.504 19.7498 147.928 19.395L149.081 16.981C149.581 17.3359 150.228 17.5509 151.022 17.7606C151.81 17.9757 152.533 18.0455 153.25 18.0455C154.686 18.0455 155.409 17.6907 155.409 16.981C155.409 16.6262 155.191 16.4111 154.832 16.2714C154.474 16.1316 153.827 15.9864 153.033 15.9165C152.098 15.7767 151.234 15.6316 150.663 15.4219C150.016 15.2068 149.51 14.9219 149.01 14.4273C148.51 13.9326 148.292 13.2929 148.292 12.3681C148.292 11.6584 148.51 10.9488 148.939 10.3789C149.369 9.80899 150.016 9.38426 150.809 9.02942C151.598 8.74447 152.609 8.52942 153.756 8.52942C154.62 8.52942 155.409 8.59931 156.273 8.81436C157.137 9.02942 157.784 9.2391 158.355 9.59393L157.208 12.0133C156.202 11.4434 155.05 11.1585 153.832 11.1585C153.114 11.1585 152.538 11.2283 152.179 11.4434C151.821 11.6585 151.603 11.9434 151.603 12.223C151.603 12.5778 151.821 12.8628 152.179 13.0025C152.538 13.1423 153.185 13.2875 154.05 13.4273C154.985 13.5671 155.773 13.7821 156.42 13.9273C157.067 14.1423 157.572 14.4219 158.002 14.9219C158.431 15.4219 158.649 16.0617 158.649 16.9111C158.649 17.6208 158.431 18.2606 158.002 18.8305C157.572 19.4004 156.925 19.8251 156.061 20.1101C155.197 20.395 154.191 20.6101 153.044 20.6101C152.109 20.68 151.103 20.5402 150.168 20.3251" fill="#1D1D1B"/>
<path d="M160.942 6.67458C160.584 6.31974 160.366 5.88963 160.366 5.32511C160.366 4.7606 160.584 4.33049 160.942 3.97565C161.301 3.62081 161.878 3.40576 162.454 3.40576C163.101 3.40576 163.606 3.54554 163.965 3.90038C164.395 4.25522 164.541 4.67995 164.541 5.17995C164.541 5.74985 164.324 6.17458 163.965 6.59931C163.606 6.95415 163.03 7.1692 162.454 7.1692C161.807 7.1692 161.301 7.02942 160.942 6.67458ZM160.725 8.80361H164.177V20.4595H160.725V8.80361Z" fill="#1D1D1B"/>
<path d="M169.636 19.895C168.63 19.395 167.912 18.6853 167.336 17.7606C166.76 16.8359 166.472 15.8413 166.472 14.6316C166.472 13.4972 166.76 12.4273 167.336 11.5025C167.912 10.5778 168.63 9.86813 169.636 9.36813C170.641 8.86813 171.723 8.58856 173.012 8.58856C174.235 8.58856 175.382 8.87351 176.317 9.36813C177.323 9.86276 178.04 10.5778 178.616 11.5025C179.193 12.4273 179.481 13.4219 179.481 14.6316C179.481 15.7714 179.193 16.8359 178.616 17.7606C178.04 18.6853 177.323 19.395 176.317 19.895C175.311 20.395 174.235 20.6746 173.012 20.6746C171.718 20.6746 170.641 20.3896 169.636 19.895ZM175.099 17.0509C175.675 16.481 175.964 15.7015 175.964 14.7068C175.964 13.7122 175.675 12.9273 175.099 12.3628C174.523 11.7929 173.805 11.5079 172.941 11.5079C172.077 11.5079 171.359 11.7929 170.783 12.3628C170.206 12.9326 169.918 13.7122 169.918 14.7068C169.918 15.7015 170.206 16.481 170.783 17.0509C171.359 17.6208 172.077 17.9058 172.941 17.9058C173.876 17.9058 174.594 17.6208 175.099 17.0509Z" fill="#1D1D1B"/>
<path d="M192.424 9.9434C193.359 10.7982 193.789 12.0778 193.789 13.7821V20.4649H190.337V14.2821C190.337 13.3574 190.119 12.6477 189.69 12.2176C189.26 11.7929 188.684 11.5079 187.89 11.5079C187.026 11.5079 186.308 11.7929 185.803 12.2875C185.303 12.7875 185.015 13.5671 185.015 14.6316V20.3896H181.562V8.80362H184.797V10.1531C185.227 9.65308 185.803 9.29824 186.52 9.01329C187.167 8.72835 187.956 8.58856 188.749 8.58856C190.331 8.65845 191.554 9.08319 192.413 9.93802" fill="#1D1D1B"/>
<path d="M208.527 15.6316H199.612C199.753 16.3413 200.188 16.9111 200.764 17.3359C201.34 17.7606 202.129 17.9757 202.993 17.9757C203.64 17.9757 204.14 17.9058 204.646 17.6907C205.151 17.4757 205.581 17.1907 205.94 16.8359L207.739 18.7552C206.663 20.0348 205.01 20.6746 202.852 20.6746C201.487 20.6746 200.335 20.3896 199.329 19.895C198.323 19.395 197.53 18.6853 196.959 17.7606C196.383 16.8359 196.165 15.8413 196.165 14.6316C196.165 13.4918 196.453 12.4273 196.959 11.5025C197.535 10.5778 198.253 9.86813 199.188 9.36813C200.123 8.86813 201.199 8.58856 202.422 8.58856C203.575 8.58856 204.651 8.80362 205.586 9.29824C206.521 9.79824 207.239 10.5079 207.815 11.4326C208.315 12.3574 208.603 13.4219 208.603 14.6316C208.603 14.7714 208.603 15.0563 208.533 15.6262M200.547 11.8628C200.041 12.2875 199.682 12.8574 199.612 13.6423H205.434C205.293 12.9326 205.005 12.2929 204.499 11.8628C203.999 11.438 203.352 11.223 202.558 11.223C201.694 11.223 201.047 11.438 200.547 11.8628Z" fill="#1D1D1B"/>
<path d="M211.974 20.3197C211.039 20.1047 210.321 19.7498 209.745 19.395L210.898 16.981C211.398 17.3359 212.045 17.5509 212.838 17.7606C213.627 17.9757 214.35 18.0455 215.067 18.0455C216.502 18.0455 217.226 17.6907 217.226 16.981C217.226 16.6262 217.008 16.4111 216.649 16.2714C216.29 16.1316 215.644 15.9864 214.85 15.9165C213.915 15.7767 213.05 15.6316 212.48 15.4219C211.833 15.2068 211.327 14.9219 210.827 14.4273C210.327 13.9326 210.109 13.2929 210.109 12.3681C210.109 11.6584 210.327 10.9488 210.756 10.3789C211.186 9.80899 211.833 9.38426 212.626 9.02942C213.415 8.74447 214.426 8.52942 215.573 8.52942C216.437 8.52942 217.226 8.59931 218.09 8.81436C218.954 9.02942 219.601 9.2391 220.172 9.59393L219.025 12.0133C218.019 11.4434 216.867 11.1585 215.649 11.1585C214.931 11.1585 214.355 11.2283 213.996 11.4434C213.638 11.6585 213.42 11.9434 213.42 12.223C213.42 12.5778 213.638 12.8628 213.996 13.0025C214.355 13.1423 215.002 13.2875 215.866 13.4273C216.801 13.5671 217.59 13.7821 218.237 13.9273C218.884 14.1423 219.389 14.4219 219.819 14.9219C220.248 15.4219 220.466 16.0617 220.466 16.9111C220.466 17.6208 220.248 18.2606 219.819 18.8305C219.389 19.4004 218.742 19.8251 217.878 20.1101C217.013 20.395 216.008 20.6101 214.861 20.6101C213.855 20.68 212.92 20.5402 211.985 20.3251" fill="#1D1D1B"/>
</svg>