<?xml version="1.0" encoding="utf-8"?>
<!-- Generator: Adobe Illustrator 23.0.3, SVG Export Plug-In . SVG Version: 6.00 Build 0)  -->
<svg version="1.1" id="Capa_1" xmlns="http://www.w3.org/2000/svg" xmlns:xlink="http://www.w3.org/1999/xlink" x="0px" y="0px"
	 width="62.4px" height="62.4px" viewBox="0 0 62.4 62.4" style="enable-background:new 0 0 62.4 62.4;" xml:space="preserve">
<style type="text/css">
	.st0{fill:#FFFFFF;}
</style>
<g id="TAXES_1_">
	<g>
		<path class="st0" d="M45.8,7.5H18.8h-7h0c-0.1,0-0.2,0-0.3,0c0,0-0.1,0-0.1,0c-0.5,0-1,0.2-1.4,0.4c0,0-0.1,0-0.1,0.1
			C9.8,8,9.7,8,9.6,8c-0.1,0-0.1,0.1-0.2,0.1C9.4,8.2,9.3,8.3,9.2,8.4l0,0C9.1,8.5,9,8.5,8.9,8.6l0,0c0,0,0,0,0,0
			C8.8,8.7,8.7,8.8,8.7,8.8c0,0-0.1,0.1-0.1,0.2c0,0,0,0,0,0C8.5,9.1,8.4,9.2,8.3,9.3c0,0,0,0,0,0C8.2,9.5,8.1,9.6,8.1,9.8
			C8,9.8,8,9.9,8,10c0,0.1-0.1,0.2-0.1,0.4c0,0.1,0,0.1,0,0.2c0,0.1,0,0.2-0.1,0.2c0,0.1,0,0.1,0,0.2c0,0.1,0,0.1,0,0.2
			c0,0.1,0,0.1,0,0.2c0,0.1,0,0.2,0,0.3v21.6H1.2v9C1.2,44.3,3,46,5.1,46h9.5v6.4h28.3c-0.2-0.4-0.4-0.8-0.5-1.2H15.8V11.6v-0.1
			c0-1.1-0.4-2.1-1.2-2.8h4.1h26.9c1.6,0,3,1.3,3,3v27.8c0.4-0.1,0.8-0.2,1.2-0.2V11.7C50,9.3,48.1,7.5,45.8,7.5z M2.5,42.2v-7.8
			h5.2v7.8c0,1.4-1.2,2.6-2.6,2.6S2.5,43.6,2.5,42.2z M14.6,44.8H7.9c0.1-0.1,0.2-0.2,0.2-0.3c0,0,0.1-0.1,0.1-0.2
			c0,0,0.1-0.1,0.1-0.2c0.2-0.3,0.4-0.7,0.5-1.1c0,0,0-0.1,0-0.1c0-0.1,0-0.1,0-0.2c0-0.1,0-0.1,0-0.2c0,0,0,0,0-0.1
			c0-0.1,0-0.2,0-0.3V11.5c0-0.1,0-0.1,0-0.2l0-0.1c0-0.1,0-0.2,0-0.3c0,0,0-0.1,0-0.1c0-0.1,0.1-0.2,0.1-0.3c0-0.1,0.1-0.1,0.1-0.2
			c0.1-0.1,0.1-0.3,0.2-0.4c0-0.1,0.1-0.1,0.2-0.2c0,0,0,0,0,0c0,0,0.1-0.1,0.1-0.1c0,0,0.1-0.1,0.1-0.1c0,0,0,0,0,0c0,0,0,0,0,0
			c0,0,0.1-0.1,0.1-0.1c0,0,0.1-0.1,0.1-0.1c0.1-0.1,0.1-0.1,0.2-0.2C10.4,9,10.6,9,10.7,8.9c0,0,0.1,0,0.1,0
			c0.2-0.1,0.4-0.1,0.7-0.1c0,0,0.1,0,0.1,0c0.1,0,0.1,0,0.2,0c0.1,0,0.1,0,0.2,0c0.1,0,0.1,0,0.2,0c0,0,0.1,0,0.1,0
			c0.1,0,0.1,0,0.2,0c0.1,0,0.1,0,0.2,0c0.1,0,0.1,0,0.2,0.1c0,0,0.1,0,0.1,0.1c0.7,0.3,1.3,1,1.6,1.8c0.1,0.3,0.1,0.6,0.1,0.9V44.8
			z"/>
	</g>
	<g>
		<g>
			<g>
				<g>
					<rect x="22.2" y="14.1" class="st0" width="20.4" height="1.2"/>
				</g>
			</g>
		</g>
	</g>
	<g>
		<g>
			<g>
				<g>
					<rect x="22.2" y="20.3" class="st0" width="20.4" height="1.2"/>
				</g>
			</g>
		</g>
	</g>
	<g>
		<g>
			<g>
				<g>
					<rect x="22.2" y="26.4" class="st0" width="20.4" height="1.2"/>
				</g>
			</g>
		</g>
	</g>
	<g>
		<g>
			<g>
				<g>
					<rect x="22.2" y="32.5" class="st0" width="20.4" height="1.2"/>
				</g>
			</g>
		</g>
	</g>
	<g>
		<g>
			<g>
				<g>
					<rect x="22.2" y="38.7" class="st0" width="13.9" height="1.2"/>
				</g>
			</g>
		</g>
	</g>
	<g>
		<g>
			<g>
				<g>
					<rect x="22.2" y="44.8" class="st0" width="10.4" height="1.2"/>
				</g>
			</g>
		</g>
	</g>
	<path class="st0" d="M59.1,42.1c-1.6-2.2-4.1-3.6-6.8-4c-0.5-0.1-1-0.1-1.4-0.1c-0.3,0-0.6,0-0.9,0c-0.4,0-0.8,0.1-1.2,0.2
		c-4.1,0.9-7.4,4.3-8,8.6c-0.2,1.5-0.1,3,0.3,4.4c0.1,0.4,0.3,0.8,0.5,1.2c1.4,3.1,4.3,5.4,7.9,5.9c0.5,0.1,1,0.1,1.4,0.1
		c5.1,0,9.4-3.8,10.1-8.8C61.4,46.9,60.7,44.2,59.1,42.1z M59.8,49.5c-0.6,4.4-4.4,7.8-8.9,7.8c-0.4,0-0.8,0-1.3-0.1
		c-3-0.4-5.4-2.2-6.7-4.7c-0.2-0.4-0.4-0.8-0.5-1.2c-0.5-1.3-0.6-2.8-0.4-4.2c0.5-3.7,3.3-6.6,6.8-7.5c0.4-0.1,0.8-0.2,1.2-0.2
		c0.3,0,0.6,0,0.9,0c0.4,0,0.8,0,1.3,0.1c2.4,0.3,4.5,1.6,5.9,3.5S60.1,47.1,59.8,49.5z"/>
	<g>
		<g>
			<g>
				<g>
					<g>
						<path class="st0" d="M51.1,47.6c-0.4-0.1-0.8-0.3-1.1-0.4c-0.5-0.3-0.9-0.6-0.9-1.1c0-0.6,0.3-1,0.9-1.1
							c0.2-0.1,0.5-0.1,0.8-0.1c0.7,0,1.6,0.3,2.3,0.8l0.7-0.9c-0.6-0.5-1.5-0.9-2.3-1v-1.8h-0.9v1.7c-0.2,0-0.4,0-0.5,0.1
							c-0.5,0.1-0.9,0.3-1.2,0.5c-0.6,0.4-0.8,1.1-0.8,1.8c0,0.8,0.3,1.3,0.8,1.7c0.3,0.3,0.8,0.4,1.2,0.6c0.2,0.1,0.5,0.2,0.8,0.3
							c1.3,0.4,2.1,0.7,2.1,1.7c0,0.9-0.8,1.4-1.8,1.4c-0.3,0-0.7-0.1-1.1-0.2c-0.4-0.1-0.9-0.4-1.2-0.7c-0.1-0.1-0.2-0.2-0.3-0.3
							l-0.5,0.6l-0.2,0.3c0.4,0.4,0.9,0.7,1.4,1c0.5,0.2,0.9,0.3,1.4,0.4v1.7h0.9v-1.7c1.7-0.1,2.7-1.1,2.7-2.5v0
							C54.1,48.6,52.8,48.1,51.1,47.6z"/>
					</g>
				</g>
			</g>
		</g>
	</g>
</g>
</svg>
