<?xml version="1.0" encoding="utf-8"?>
<!-- Generator: Adobe Illustrator 23.0.3, SVG Export Plug-In . SVG Version: 6.00 Build 0)  -->
<svg version="1.1" id="Capa_1" xmlns="http://www.w3.org/2000/svg" xmlns:xlink="http://www.w3.org/1999/xlink" x="0px" y="0px"
	 width="62.4px" height="62.4px" viewBox="0 0 62.4 62.4" style="enable-background:new 0 0 62.4 62.4;" xml:space="preserve">
<style type="text/css">
	.st0{fill:#FFFFFF;}
</style>
<g id="INVESTMENT">
	<g>
		<g>
			<g>
				<g>
					<path class="st0" d="M20.8,53.2c-1.1,0-2.2-0.1-3.1-0.2c-4.4-0.6-8.1-3.1-8.3-3.3c-5.5-3.8-8.8-10-8.8-16.6
						c0-11.1,9-20.1,20.1-20.1c3.7,0,7.3,1,10.5,2.9l0.6,0.4L17.2,33.1L32,49.8l-0.6,0.4C28.2,52.1,24.6,53.2,20.8,53.2z M20.8,14.1
						c-10.5,0-19,8.5-19,19c0,6.3,3.1,12.1,8.3,15.7c0,0,3.6,2.5,7.7,3.1c0.9,0.1,1.9,0.2,2.9,0.2c3.3,0,6.6-0.9,9.4-2.5L15.6,33.1
						L30,16.5C27.2,14.9,24,14.1,20.8,14.1z"/>
				</g>
			</g>
		</g>
	</g>
	<g>
		<g>
			<g>
				<g>
					<g>
						<g>
							<path class="st0" d="M45.9,15.8c0,1.5-1.1,2.6-2.9,2.7v1.8h-1v-1.8c-1.1-0.1-2.2-0.6-3-1.5l0.8-0.9c0.8,0.8,1.9,1.2,2.9,1.2
								c1.1,0,1.9-0.5,1.9-1.5c0-1.1-0.9-1.4-2.2-1.9c-1.6-0.5-3.1-1-3.1-2.8c0-1.4,1-2.5,2.8-2.6V6.7h1v1.9
								c0.9,0.2,1.9,0.6,2.5,1.1l-0.7,0.9C44,10.1,43,9.8,42.3,9.8c-1,0-1.8,0.5-1.8,1.4c0,0.9,0.9,1.3,2.1,1.7
								C44.5,13.4,45.9,13.9,45.9,15.8L45.9,15.8z"/>
						</g>
					</g>
				</g>
			</g>
		</g>
	</g>
	<polygon class="st0" points="51.9,21.5 51.9,22.7 56.2,22.7 45.4,36.2 24.9,36.2 15.3,48.5 16.2,49.2 25.5,37.4 46,37.4 57.3,23.2 
		57.3,27.9 58.5,27.9 58.5,21.5 	"/>
	<g>
		<g>
			<g>
				<g>
					<path class="st0" d="M36.1,46.1L24.5,33L36,19.9l0.4,0.5c0.2,0.2,4.8,5.6,4.5,13.4c0,0.2-0.2,4.1-1.4,6.7
						c-0.1,0.3-0.9,2.7-3,5.2L36.1,46.1z M26,33l10,11.3c1.7-2.3,2.4-4.3,2.4-4.3l0-0.1c1.1-2.4,1.3-6.2,1.3-6.3
						c0.3-6-2.7-10.5-3.8-12L26,33z"/>
				</g>
			</g>
		</g>
	</g>
	<g>
		<g>
			<g>
				<g>
					<path class="st0" d="M57.3,55.7H50V45.4h-4.4l8-7.5l8,7.5h-4.4V55.7z M51.2,54.5h5V44.2h2.6l-5.1-4.7l-5.1,4.7h2.6V54.5z"/>
				</g>
			</g>
		</g>
	</g>
</g>
</svg>
