<svg width="64" height="40" viewBox="0 0 64 40" fill="none" xmlns="http://www.w3.org/2000/svg">
<g clip-path="url(#clip0_126_171)">
<path d="M45.8156 15.5199C45.7259 15.4633 45.6198 15.4355 45.4974 15.4355C45.375 15.4355 45.2684 15.4633 45.1777 15.5199C45.087 15.5771 45.0164 15.6543 44.9656 15.7532C44.9147 15.8521 44.8897 15.9649 44.8897 16.0926C44.8897 16.2203 44.9152 16.3292 44.9656 16.4281C45.016 16.527 45.087 16.6033 45.1777 16.6575C45.2684 16.7118 45.375 16.7387 45.4974 16.7387C45.6198 16.7387 45.7259 16.7118 45.8156 16.6575C45.9049 16.6033 45.9745 16.527 46.024 16.4281C46.0734 16.3292 46.0979 16.2169 46.0979 16.0926C46.0979 15.9683 46.0734 15.8521 46.024 15.7532C45.9745 15.6543 45.9049 15.5766 45.8156 15.5199Z" fill="white"/>
<path d="M27.8502 16.4439C27.9078 16.3393 27.9366 16.2207 27.9366 16.0892C27.9366 15.9577 27.9078 15.8391 27.8502 15.734C27.7926 15.6294 27.7143 15.5468 27.6154 15.4868C27.5166 15.4268 27.4023 15.3966 27.2727 15.3966C27.1431 15.3966 27.0342 15.4268 26.9314 15.4868C26.8292 15.5468 26.7471 15.6294 26.6861 15.734C26.6247 15.8391 26.5945 15.9572 26.5945 16.0892C26.5945 16.2212 26.6252 16.3393 26.6861 16.4439C26.7476 16.5491 26.8292 16.6311 26.9314 16.6897C27.0342 16.7487 27.1474 16.778 27.2727 16.778C27.398 16.778 27.5166 16.7487 27.6154 16.6897C27.7143 16.6307 27.7926 16.5486 27.8502 16.4439Z" fill="white"/>
<path d="M34.8265 21.3894C34.7017 21.3092 34.5543 21.2694 34.3849 21.2694C34.2154 21.2694 34.0676 21.3092 33.9414 21.3894C33.8151 21.4696 33.7172 21.5771 33.6481 21.7124C33.5785 21.8483 33.5439 22.0014 33.5439 22.1737C33.5439 22.346 33.579 22.4987 33.6481 22.6331C33.7177 22.7675 33.8151 22.8731 33.9414 22.9513C34.0671 23.0291 34.215 23.068 34.3849 23.068C34.5548 23.068 34.7017 23.0291 34.8265 22.9513C34.9513 22.8731 35.0478 22.7675 35.1159 22.6331C35.1841 22.4987 35.2187 22.3456 35.2187 22.1737C35.2187 22.0019 35.1846 21.8483 35.1159 21.7124C35.0478 21.5771 34.9513 21.4696 34.8265 21.3894Z" fill="white"/>
<path d="M31.0762 16.6897C31.1785 16.7487 31.2946 16.778 31.4242 16.778C31.5538 16.778 31.6614 16.7487 31.7617 16.6897C31.862 16.6307 31.9407 16.5486 31.9983 16.4439C32.0559 16.3393 32.0847 16.2207 32.0847 16.0892C32.0847 15.9577 32.0559 15.8391 31.9983 15.734C31.9407 15.6294 31.8615 15.5468 31.7617 15.4868C31.6614 15.4268 31.549 15.3966 31.4242 15.3966C31.2994 15.3966 31.1785 15.4268 31.0762 15.4868C30.9735 15.5468 30.8929 15.6294 30.8343 15.734C30.7753 15.8391 30.746 15.9572 30.746 16.0892C30.746 16.2212 30.7753 16.3393 30.8343 16.4439C30.8934 16.5491 30.974 16.6311 31.0762 16.6897Z" fill="white"/>
<path d="M12.1244 10.7948L7.1429 9.0812V26.7712L12.1244 25.0571V10.7948Z" fill="white"/>
<path d="M0 -24V30.5593L13.26 25.898H22.2874L62.4026 40H64V-24H0ZM12.3164 25.1944L6.9509 27.0405V8.8124L12.3164 10.6585V25.1944ZM22.2869 24.9774H13.26V10.8755H22.2869V24.9774ZM29.6713 12.6755H30.7455V15.0606C30.7666 14.9948 30.8214 14.9223 30.9097 14.8436C30.998 14.7649 31.1146 14.6963 31.2596 14.6387C31.4046 14.5811 31.5687 14.5523 31.7526 14.5523C32.0353 14.5523 32.2801 14.6219 32.4874 14.7611C32.6948 14.9003 32.8551 15.0855 32.9679 15.3174C33.0807 15.5497 33.1374 15.807 33.1374 16.0897C33.1374 16.3724 33.0807 16.6297 32.9679 16.862C32.8546 17.0939 32.6948 17.2791 32.4874 17.4169C32.2801 17.5547 32.0353 17.6238 31.7526 17.6238C31.597 17.6238 31.4506 17.5959 31.3124 17.5403C31.1746 17.4851 31.0556 17.4145 30.9558 17.3286C30.8554 17.2427 30.782 17.1558 30.735 17.0689V17.5388H29.6713V12.6755ZM26.3818 23.619H25.6292V20.7184H26.3818V23.619ZM26.3501 19.7108C26.2585 19.803 26.1461 19.8486 26.0141 19.8486C25.8821 19.8486 25.778 19.803 25.6873 19.7108C25.5965 19.6192 25.5514 19.5097 25.5514 19.3825C25.5514 19.2553 25.5965 19.1449 25.6873 19.0523C25.778 18.9592 25.8869 18.9131 26.0141 18.9131C26.0991 18.9131 26.1773 18.9347 26.2493 18.9784C26.3213 19.022 26.379 19.0787 26.4221 19.1478C26.4658 19.2174 26.4879 19.2956 26.4879 19.383C26.4879 19.5102 26.4418 19.6192 26.3501 19.7108ZM26.2124 17.4159C26.0002 17.2782 25.8356 17.0934 25.7175 16.8611C25.5999 16.6287 25.5409 16.3715 25.5409 16.0887C25.5409 15.806 25.5999 15.5487 25.7175 15.3164C25.8351 15.0846 26.0002 14.8993 26.2124 14.7601C26.4241 14.6214 26.6717 14.5513 26.9545 14.5513C27.1359 14.5513 27.2948 14.5801 27.4316 14.6377C27.5684 14.6953 27.6788 14.7639 27.7638 14.8427C27.8487 14.9214 27.9073 14.9939 27.9404 15.0596V14.6358H29.0074V17.5364H27.951V17.0665C27.9298 17.1135 27.8761 17.1817 27.7902 17.271C27.7042 17.3607 27.5905 17.4414 27.4494 17.5134C27.3082 17.5849 27.1431 17.6214 26.9545 17.6214C26.6717 17.6214 26.4245 17.5523 26.2124 17.4145V17.4159ZM29.3358 23.619V21.9582C29.3358 21.6971 29.2738 21.5046 29.1505 21.3808C29.0266 21.2569 28.8673 21.1955 28.6719 21.1955C28.5423 21.1955 28.4185 21.232 28.3009 21.3049C28.1833 21.3784 28.0873 21.4772 28.0129 21.6016C27.939 21.7264 27.9015 21.8704 27.9015 22.0331V23.6195H27.1455V20.7188H27.9015V21.206C27.9226 21.1259 27.9798 21.0419 28.0729 20.9531C28.166 20.8648 28.2846 20.7899 28.4281 20.727C28.5716 20.6646 28.7271 20.6334 28.8946 20.6334C29.0905 20.6334 29.2801 20.6732 29.4634 20.7534C29.6473 20.8336 29.7985 20.9612 29.9175 21.1369C30.0361 21.3121 30.0961 21.5406 30.0961 21.8204V23.619H29.3358ZM32.5863 21.3544H31.7914V23.619H31.0426V21.3544H30.4844V20.7184H31.0426V19.9124C31.0426 19.623 31.0969 19.3864 31.2049 19.204C31.3134 19.0216 31.4516 18.8871 31.6201 18.8012C31.7881 18.7153 31.9623 18.6721 32.1409 18.6721C32.3598 18.6721 32.5278 18.7024 32.6444 18.7624C32.761 18.8224 32.8321 18.8641 32.858 18.8876L32.5614 19.4526C32.547 19.4387 32.5119 19.4132 32.4553 19.3768C32.3986 19.3403 32.3223 19.322 32.2254 19.322C32.1548 19.322 32.0866 19.3384 32.0223 19.3715C31.9575 19.4046 31.9028 19.4694 31.8582 19.5659C31.8135 19.6624 31.791 19.804 31.791 19.9897V20.7179H32.5858L32.5863 21.3544ZM35.7399 22.9604C35.607 23.1899 35.4236 23.3713 35.1903 23.5043C34.9571 23.6372 34.6887 23.704 34.3849 23.704C34.081 23.704 33.8108 23.6372 33.5737 23.5043C33.337 23.3713 33.1518 23.1899 33.0174 22.9604C32.8834 22.7305 32.8162 22.4699 32.8162 22.1776C32.8162 21.8852 32.8834 21.6227 33.0174 21.3899C33.1518 21.1566 33.337 20.9728 33.5737 20.8369C33.8103 20.7016 34.081 20.6339 34.3849 20.6339C34.6887 20.6339 34.9571 20.7016 35.1903 20.8369C35.4236 20.9728 35.6065 21.1571 35.7399 21.3899C35.8729 21.6232 35.9396 21.8857 35.9396 22.1776C35.9396 22.4694 35.8729 22.7305 35.7399 22.9604ZM35.7313 15.6049C35.6982 15.5651 35.6401 15.5233 35.5561 15.4796C35.4726 15.4359 35.3684 15.4143 35.2436 15.4143C35.0996 15.4143 34.9815 15.4508 34.8884 15.5238C34.7953 15.5972 34.7271 15.6851 34.6835 15.7887C34.6398 15.8924 34.6182 15.9903 34.6182 16.082V17.5379H33.5439V14.6372H34.6182V15.0462C34.6422 14.9991 34.682 14.9439 34.7382 14.8791C34.8111 14.7956 34.9138 14.7203 35.0454 14.6531C35.1774 14.5859 35.3387 14.5523 35.5297 14.5523C35.6641 14.5523 35.7874 14.5729 35.9007 14.6142C36.014 14.6555 36.0966 14.6953 36.1484 14.7327L35.7313 15.6049ZM37.5476 17.5379H36.4734V14.6372H37.5476V17.5379ZM37.4559 13.8611C37.3359 13.9801 37.1919 14.0396 37.0249 14.0396C36.8555 14.0396 36.7115 13.9801 36.5939 13.8611C36.4758 13.742 36.4172 13.6004 36.4172 13.4353C36.4172 13.2702 36.4767 13.1271 36.5958 13.0062C36.7148 12.8847 36.8579 12.8243 37.0249 12.8243C37.1358 12.8243 37.2371 12.8516 37.3287 12.9073C37.4204 12.9625 37.4948 13.0364 37.551 13.1286C37.6076 13.2203 37.6359 13.323 37.6359 13.4358C37.6359 13.6009 37.5759 13.742 37.4559 13.8611ZM43.3955 17.5379H42.339V15.9971C42.339 15.795 42.3083 15.6308 42.2473 15.506C42.1859 15.3812 42.0649 15.3188 41.8835 15.3188C41.775 15.3188 41.6795 15.3467 41.5974 15.4033C41.5148 15.4599 41.451 15.5382 41.4063 15.6385C41.3617 15.7388 41.3391 15.8579 41.3391 15.9971V17.5379H40.3532V15.9971C40.3532 15.795 40.3196 15.6308 40.2524 15.506C40.1852 15.3812 40.0671 15.3188 39.8972 15.3188C39.7887 15.3188 39.6932 15.3467 39.6107 15.4019C39.5281 15.4571 39.4652 15.5348 39.4215 15.6351C39.3779 15.7355 39.3563 15.8564 39.3563 15.9971V17.5379H38.2892V14.6372H39.3563V15.0505C39.3846 14.9775 39.4465 14.9027 39.5415 14.8263C39.6371 14.75 39.7551 14.6847 39.8967 14.6319C40.0379 14.5787 40.1876 14.5523 40.3455 14.5523C40.5174 14.5523 40.6614 14.5777 40.7766 14.6286C40.8918 14.679 40.9868 14.7467 41.0612 14.8316C41.1351 14.9166 41.1947 15.0083 41.2398 15.1071C41.2724 15.0222 41.3382 14.9367 41.4356 14.8513C41.5335 14.7654 41.6559 14.6939 41.8033 14.6377C41.9507 14.5811 42.1091 14.5527 42.2785 14.5527C42.4974 14.5527 42.6908 14.5979 42.8579 14.6891C43.0249 14.7798 43.1564 14.9195 43.252 15.1076C43.3475 15.2963 43.395 15.5391 43.395 15.8358V17.5388L43.3955 17.5379ZM46.9076 16.886C46.7708 17.1159 46.5812 17.2964 46.3388 17.427C46.096 17.558 45.8161 17.6233 45.4979 17.6233C45.1796 17.6233 44.8979 17.558 44.6516 17.427C44.4054 17.2964 44.2124 17.1159 44.0723 16.886C43.9321 16.6566 43.862 16.3935 43.862 16.0964C43.862 15.7993 43.9321 15.5353 44.0723 15.3035C44.2124 15.0716 44.4054 14.8883 44.6516 14.7539C44.8979 14.6199 45.1801 14.5523 45.4979 14.5523C45.8156 14.5523 46.096 14.6195 46.3388 14.7539C46.5817 14.8883 46.7713 15.0716 46.9076 15.3035C47.0444 15.5353 47.1126 15.7998 47.1126 16.0964C47.1126 16.3931 47.0444 16.6566 46.9076 16.886ZM50.0065 17.1174C49.9197 17.2494 49.804 17.3516 49.6604 17.4251C49.5169 17.498 49.3614 17.5494 49.1939 17.5787C49.0268 17.6084 48.8641 17.6233 48.7062 17.6233C48.4849 17.6233 48.2924 17.6032 48.1283 17.5633C47.9646 17.5235 47.8321 17.4774 47.7308 17.4255C47.6296 17.3732 47.559 17.3324 47.5187 17.3017L47.8652 16.5947C47.9262 16.647 48.0265 16.7046 48.1652 16.7699C48.3044 16.8347 48.4518 16.8673 48.6068 16.8673C48.7619 16.8673 48.8742 16.8447 48.9568 16.8001C49.0388 16.7555 49.0801 16.6964 49.0801 16.6235C49.0801 16.5644 49.06 16.5174 49.0201 16.4819C48.9803 16.4468 48.9236 16.4161 48.8507 16.3902C48.7777 16.3643 48.6894 16.3407 48.5857 16.3191C48.4916 16.3004 48.3913 16.2711 48.2852 16.2308C48.1792 16.191 48.0793 16.1358 47.9852 16.0662C47.8912 15.9971 47.8144 15.9092 47.7553 15.8031C47.6963 15.6975 47.667 15.5689 47.667 15.4182C47.667 15.2247 47.7294 15.0644 47.8542 14.9377C47.979 14.8105 48.1403 14.7145 48.338 14.6497C48.5358 14.5849 48.7465 14.5523 48.9702 14.5523C49.1612 14.5523 49.3355 14.5681 49.4934 14.5998C49.6513 14.6319 49.7838 14.6675 49.8909 14.7073C49.9979 14.7471 50.067 14.7807 50.0977 14.8062L49.7478 15.4383C49.7032 15.4057 49.6201 15.363 49.4987 15.3111C49.3772 15.2593 49.2424 15.2334 49.094 15.2334C48.9808 15.2334 48.8857 15.2507 48.808 15.2847C48.7302 15.3188 48.6913 15.3726 48.6913 15.4455C48.6913 15.5185 48.7341 15.5771 48.8204 15.6207C48.9064 15.6644 49.0307 15.7023 49.1929 15.7355C49.3345 15.7633 49.478 15.8084 49.624 15.8699C49.7699 15.9313 49.8918 16.0211 49.9897 16.1401C50.0872 16.2591 50.1361 16.4171 50.1361 16.6153C50.1361 16.8135 50.0925 16.9854 50.0056 17.1169L50.0065 17.1174Z" fill="white"/>
</g>
<defs>
<clipPath id="clip0_126_171">
<rect width="64" height="40" fill="white"/>
</clipPath>
</defs>
</svg>
