<?xml version="1.0" standalone="no"?>
<!DOCTYPE svg PUBLIC "-//W3C//DTD SVG 20010904//EN"
 "http://www.w3.org/TR/2001/REC-SVG-20010904/DTD/svg10.dtd">
<svg version="1.0" xmlns="http://www.w3.org/2000/svg"
 width="800.000000pt" height="490.000000pt" viewBox="0 0 800.000000 490.000000"
 preserveAspectRatio="xMidYMid meet">

<g transform="translate(0.000000,490.000000) scale(0.100000,-0.100000)"
fill="#000000" stroke="none">
<path d="M3765 4840 c-88 -4 -194 -12 -235 -18 -41 -7 -91 -14 -110 -16 -132
-18 -312 -55 -460 -95 -63 -16 -126 -33 -140 -36 -14 -4 -34 -10 -45 -15 -11
-5 -69 -25 -130 -45 -60 -21 -128 -46 -149 -56 -22 -11 -45 -19 -50 -19 -6 -1
-29 -9 -51 -20 -22 -11 -46 -19 -52 -20 -7 0 -13 -4 -13 -10 0 -5 -5 -10 -12
-10 -11 0 -85 -33 -161 -71 -21 -10 -44 -19 -52 -19 -8 0 -15 -4 -15 -9 0 -5
-12 -12 -27 -16 -15 -3 -30 -10 -33 -13 -5 -6 -22 -16 -105 -61 -16 -9 -32
-18 -35 -21 -3 -3 -21 -13 -40 -24 -93 -49 -145 -80 -148 -87 -2 -5 -7 -9 -12
-9 -8 0 -133 -78 -155 -97 -5 -5 -28 -20 -50 -33 -22 -13 -42 -27 -45 -30 -3
-4 -27 -22 -55 -40 -27 -19 -61 -44 -75 -57 -14 -13 -28 -23 -32 -23 -3 0 -13
-6 -20 -13 -7 -7 -42 -35 -78 -62 -61 -47 -98 -76 -124 -100 -6 -6 -33 -28
-61 -50 -144 -117 -590 -562 -657 -659 -12 -17 -34 -43 -48 -57 -14 -15 -36
-41 -50 -59 -14 -18 -30 -37 -36 -44 -32 -34 -134 -180 -134 -191 0 -7 -3 -15
-7 -17 -18 -7 -43 -107 -43 -168 0 -61 25 -161 43 -168 4 -2 7 -10 7 -17 0
-11 102 -157 134 -191 6 -7 22 -26 36 -44 14 -18 36 -44 50 -59 14 -14 36 -40
48 -57 67 -96 511 -540 657 -659 56 -45 92 -75 109 -90 6 -6 40 -33 76 -60 36
-27 71 -55 78 -62 7 -7 17 -13 20 -13 4 0 18 -10 32 -23 14 -13 48 -38 75 -57
28 -18 52 -36 55 -40 3 -3 23 -17 45 -30 22 -13 45 -28 50 -33 22 -19 147 -97
155 -97 5 0 10 -4 12 -9 3 -7 55 -38 148 -87 19 -11 37 -21 40 -24 3 -3 20
-13 38 -23 17 -9 47 -25 64 -35 18 -9 35 -20 38 -24 3 -3 18 -10 33 -13 15 -4
27 -11 27 -16 0 -5 7 -9 15 -9 8 0 31 -9 52 -19 76 -38 150 -71 161 -71 7 0
12 -4 12 -10 0 -5 6 -10 13 -10 6 -1 30 -9 52 -20 22 -11 45 -19 51 -20 5 0
28 -8 50 -19 21 -10 89 -35 149 -56 61 -20 119 -40 130 -45 11 -5 31 -11 45
-15 14 -3 77 -20 140 -36 124 -34 206 -52 340 -75 84 -15 122 -20 310 -44 125
-16 675 -16 800 0 188 24 226 29 310 44 134 23 216 41 340 75 63 16 126 33
140 36 14 4 34 10 45 15 11 5 70 25 130 45 61 21 128 46 149 56 22 11 45 19
50 19 6 1 29 9 51 20 22 11 46 19 53 20 6 0 12 5 12 10 0 6 5 10 12 10 11 0
85 33 161 71 21 10 44 19 52 19 8 0 15 4 15 9 0 5 12 12 27 16 15 3 30 10 33
13 3 4 20 15 38 24 17 10 47 26 64 35 18 10 35 20 38 23 3 3 21 13 40 24 93
49 145 80 148 87 2 5 7 9 12 9 8 0 133 78 155 97 6 5 28 20 50 33 22 13 42 27
45 30 3 4 28 22 55 40 28 19 61 44 75 57 14 13 28 23 32 23 3 0 13 6 20 13 7
7 42 35 78 62 61 47 98 76 124 100 6 6 33 28 61 50 144 117 590 562 657 659
12 17 34 43 48 57 14 15 36 41 50 59 14 18 30 37 36 44 32 34 134 180 134 191
0 7 3 15 8 17 17 7 42 107 42 168 0 61 -25 161 -42 168 -5 2 -8 10 -8 17 0 11
-102 157 -134 191 -6 7 -22 26 -36 44 -14 18 -36 44 -50 59 -14 14 -36 40 -48
57 -67 96 -511 540 -657 659 -56 45 -92 75 -109 90 -6 6 -40 33 -76 60 -36 27
-71 55 -78 62 -7 7 -17 13 -20 13 -4 0 -18 10 -32 23 -14 13 -47 38 -75 57
-27 18 -52 36 -55 40 -3 3 -23 17 -45 30 -22 13 -44 28 -50 33 -22 19 -147 97
-155 97 -5 0 -10 4 -12 9 -3 7 -55 38 -148 87 -19 11 -37 21 -40 24 -3 3 -19
12 -35 21 -83 45 -100 55 -105 61 -3 3 -18 10 -33 13 -15 4 -27 11 -27 16 0 5
-7 9 -15 9 -8 0 -31 9 -52 19 -76 38 -150 71 -161 71 -7 0 -12 5 -12 10 0 6
-6 10 -12 10 -7 1 -31 9 -53 20 -22 11 -45 19 -51 20 -5 0 -28 8 -50 19 -21
10 -88 35 -149 56 -60 20 -119 40 -130 45 -11 5 -31 11 -45 15 -14 3 -77 20
-140 36 -405 109 -829 151 -1295 129z m600 -410 c94 -11 208 -26 255 -34 47
-8 114 -20 150 -26 36 -5 76 -14 90 -19 14 -5 59 -17 100 -27 41 -10 80 -21
85 -25 6 -4 28 -10 50 -14 22 -4 45 -11 50 -15 6 -4 26 -11 45 -15 19 -4 41
-11 50 -15 43 -21 92 -40 105 -40 7 0 26 -6 42 -14 15 -8 39 -19 53 -25 93
-38 322 -145 375 -174 11 -6 56 -31 100 -55 44 -25 89 -50 100 -56 11 -6 34
-20 50 -30 17 -11 46 -29 65 -41 96 -61 216 -139 220 -144 3 -4 30 -23 60 -44
30 -20 67 -47 82 -59 14 -13 36 -30 48 -38 12 -8 28 -19 34 -25 6 -5 27 -22
46 -36 19 -15 47 -37 62 -50 14 -13 37 -33 50 -44 76 -63 111 -94 187 -163
155 -142 385 -380 452 -467 13 -17 32 -39 44 -50 11 -11 32 -36 46 -55 15 -19
36 -46 48 -60 27 -33 32 -38 65 -82 l28 -38 -28 -37 c-33 -45 -38 -50 -65 -83
-12 -14 -33 -41 -48 -60 -14 -19 -35 -44 -46 -55 -12 -11 -31 -33 -44 -50 -67
-87 -297 -325 -452 -467 -76 -69 -111 -100 -187 -163 -13 -11 -36 -31 -50 -44
-15 -13 -43 -35 -62 -50 -19 -14 -40 -30 -46 -36 -6 -5 -22 -17 -34 -25 -12
-8 -34 -25 -48 -38 -15 -12 -52 -39 -82 -59 -30 -21 -57 -40 -60 -44 -4 -5
-124 -83 -220 -144 -19 -12 -48 -30 -65 -41 -16 -10 -39 -24 -50 -30 -11 -6
-56 -31 -100 -56 -44 -24 -89 -49 -100 -55 -53 -29 -282 -136 -375 -174 -14
-6 -38 -17 -53 -25 -16 -8 -35 -14 -42 -14 -13 0 -62 -19 -105 -40 -9 -4 -31
-11 -50 -15 -19 -4 -39 -11 -45 -15 -5 -4 -28 -11 -50 -15 -22 -4 -44 -10 -50
-14 -5 -4 -44 -15 -85 -25 -41 -10 -86 -22 -100 -27 -14 -5 -54 -14 -90 -19
-36 -6 -103 -18 -150 -26 -399 -70 -821 -70 -1220 0 -47 8 -114 20 -150 26
-36 5 -76 14 -90 19 -14 5 -59 17 -100 27 -41 10 -79 21 -85 25 -5 4 -28 10
-50 14 -22 4 -44 11 -50 15 -5 4 -26 11 -45 15 -19 4 -41 11 -50 15 -43 21
-92 40 -105 40 -7 0 -26 6 -42 14 -15 8 -39 19 -53 25 -93 38 -322 145 -375
174 -11 6 -56 31 -100 55 -44 25 -89 50 -100 56 -11 6 -33 20 -50 30 -16 11
-46 29 -65 41 -96 61 -216 139 -220 144 -3 4 -30 23 -60 44 -30 20 -67 47 -82
59 -14 13 -36 30 -48 38 -12 8 -28 20 -34 25 -6 6 -27 22 -46 36 -19 15 -47
37 -62 50 -14 13 -37 33 -50 44 -76 63 -111 94 -187 163 -155 142 -385 380
-452 467 -13 17 -32 39 -44 50 -11 11 -32 36 -46 55 -15 19 -36 46 -48 60 -27
33 -32 38 -65 83 l-28 37 28 38 c33 44 38 49 65 82 12 14 33 41 48 60 14 19
35 44 46 55 12 11 31 33 44 50 67 87 297 325 452 467 76 69 111 100 187 163
13 11 36 31 50 44 15 13 43 35 62 50 19 14 40 31 46 36 6 6 22 17 34 25 12 8
34 25 48 38 15 12 52 39 82 59 30 21 57 40 60 44 4 5 124 83 220 144 19 12 49
30 65 41 17 10 39 24 50 30 11 6 56 31 100 56 44 24 89 49 100 55 53 29 282
136 375 174 14 6 38 17 53 25 16 8 35 14 42 14 13 0 62 19 105 40 9 4 31 11
50 15 19 4 40 11 45 15 6 4 28 11 50 15 22 4 45 10 50 14 6 4 44 15 85 25 41
10 86 22 100 27 14 5 54 14 90 19 36 6 103 18 150 26 312 55 670 68 965 34z"/>
<path d="M3860 4038 c-74 -4 -146 -12 -160 -18 -14 -5 -42 -12 -63 -16 -21 -3
-82 -22 -135 -41 -53 -19 -107 -37 -119 -40 -13 -3 -23 -9 -23 -14 0 -5 -5 -9
-11 -9 -19 0 -103 -42 -162 -81 -32 -22 -63 -39 -68 -39 -5 0 -9 -3 -9 -8 0
-4 -16 -16 -35 -26 -19 -11 -35 -22 -35 -27 0 -4 -13 -15 -30 -26 -61 -39
-280 -266 -280 -291 0 -5 -13 -23 -28 -40 -16 -18 -38 -49 -48 -69 -10 -21
-25 -44 -31 -51 -7 -7 -13 -20 -13 -28 0 -8 -4 -14 -10 -14 -5 0 -10 -6 -10
-12 0 -7 -10 -33 -23 -58 -12 -25 -33 -74 -46 -110 -12 -36 -26 -72 -31 -80
-4 -9 -11 -36 -15 -60 -4 -24 -11 -51 -16 -60 -20 -37 -39 -216 -39 -370 0
-154 19 -333 39 -370 5 -9 12 -36 16 -60 4 -24 11 -51 15 -60 5 -8 19 -44 31
-80 13 -36 34 -85 46 -110 13 -25 23 -51 23 -57 0 -7 5 -13 10 -13 6 0 10 -6
10 -14 0 -8 6 -21 13 -28 6 -7 21 -30 31 -51 10 -20 32 -51 48 -69 15 -17 28
-35 28 -40 0 -25 219 -252 280 -291 17 -11 30 -22 30 -26 0 -5 16 -16 35 -27
19 -10 35 -22 35 -26 0 -5 4 -8 9 -8 5 0 36 -17 68 -39 58 -38 143 -81 162
-81 5 0 11 -4 13 -9 4 -10 199 -78 283 -98 106 -26 186 -33 365 -33 179 0 259
7 365 33 84 20 279 88 283 98 2 5 8 9 13 9 19 0 104 43 162 81 32 22 63 39 68
39 5 0 9 3 9 8 0 4 16 16 35 26 19 11 35 22 35 27 0 4 13 15 30 26 61 39 280
266 280 291 0 5 13 23 28 40 16 18 38 49 48 69 10 21 25 44 32 51 6 7 12 20
12 28 0 8 5 14 10 14 6 0 10 6 10 13 0 6 10 32 23 57 12 25 33 74 46 110 12
36 26 72 31 80 4 9 11 36 15 60 4 24 11 51 16 60 20 37 39 216 39 370 0 154
-19 333 -39 370 -5 9 -12 36 -16 60 -4 24 -11 51 -15 60 -5 8 -19 44 -31 80
-13 36 -34 85 -46 110 -13 25 -23 51 -23 58 0 6 -4 12 -10 12 -5 0 -10 6 -10
14 0 8 -6 21 -12 28 -7 7 -22 30 -32 51 -10 20 -32 51 -48 69 -15 17 -28 35
-28 40 0 25 -219 252 -280 291 -17 11 -30 22 -30 26 0 5 -16 16 -35 27 -19 10
-35 22 -35 26 0 5 -4 8 -9 8 -5 0 -36 17 -68 39 -59 39 -143 81 -162 81 -6 0
-11 4 -11 9 0 5 -10 11 -22 14 -13 3 -63 20 -113 38 -203 72 -383 93 -665 77z
m285 -398 c92 -11 185 -29 210 -40 11 -5 43 -16 70 -26 79 -28 212 -100 289
-156 83 -61 214 -190 253 -250 15 -24 30 -45 33 -48 22 -19 130 -229 130 -252
0 -8 3 -18 7 -22 8 -8 21 -57 50 -181 21 -95 21 -335 0 -430 -29 -124 -42
-173 -50 -181 -4 -4 -7 -14 -7 -22 0 -23 -108 -233 -130 -252 -3 -3 -18 -24
-33 -48 -39 -60 -170 -189 -253 -250 -77 -56 -210 -128 -289 -156 -27 -10 -59
-21 -70 -26 -31 -13 -130 -30 -242 -42 -130 -13 -373 9 -448 42 -11 5 -42 16
-70 26 -79 28 -212 100 -289 156 -83 61 -214 190 -253 250 -15 24 -30 45 -33
48 -22 19 -130 229 -130 252 0 8 -3 18 -7 22 -8 8 -21 57 -50 181 -21 95 -21
335 0 430 29 124 42 173 50 181 4 4 7 14 7 22 0 23 108 233 130 252 3 3 18 24
33 48 39 60 170 189 253 250 77 56 210 128 289 156 28 10 59 21 70 26 24 10
118 29 200 39 84 11 198 11 280 1z"/>
<path d="M3564 3330 c-12 -4 -31 -21 -43 -36 -21 -26 -21 -32 -21 -488 l0
-461 23 -28 c17 -22 34 -30 70 -34 l48 -6 -18 -26 c-25 -37 -23 -123 3 -157
20 -27 20 -28 1 -66 -34 -68 0 -146 76 -172 34 -11 42 -21 62 -71 13 -32 38
-72 54 -89 28 -29 31 -38 31 -94 l0 -62 45 0 45 0 0 89 c0 80 -2 90 -20 96
-25 8 -68 60 -76 91 -5 19 0 29 21 46 15 12 34 36 41 55 8 18 21 33 29 33 29
0 34 40 35 300 1 301 0 300 77 300 l43 0 0 -106 c0 -58 4 -114 10 -124 16 -29
140 -111 164 -108 28 4 35 54 9 73 -17 13 -17 14 0 32 12 14 17 36 17 76 0 31
3 57 6 57 12 0 132 -101 138 -116 15 -38 1 -103 -79 -363 -75 -246 -85 -287
-85 -355 l0 -76 45 0 45 0 0 75 c0 65 11 111 85 357 47 155 85 298 85 317 -1
69 -31 113 -139 200 l-101 82 0 350 c0 386 0 387 -62 408 -37 13 -632 14 -664
1z m249 -1111 c67 -18 85 -80 32 -115 -21 -14 -29 -14 -75 0 -66 20 -80 31
-80 67 0 54 42 71 123 48z m-26 -209 c18 0 43 -29 43 -50 0 -51 -113 -45 -126
7 -8 31 19 57 51 49 11 -3 25 -6 32 -6z"/>
</g>
</svg>
